<?xml version="1.0" encoding="UTF-8" standalone="no"?>
<!DOCTYPE svg PUBLIC "-//W3C//DTD SVG 1.1//EN" "http://www.w3.org/Graphics/SVG/1.1/DTD/svg11.dtd">
<svg width="100%" height="100%" viewBox="0 0 254 46" version="1.1" xmlns="http://www.w3.org/2000/svg" xmlns:xlink="http://www.w3.org/1999/xlink" xml:space="preserve" xmlns:serif="http://www.serif.com/" style="fill-rule:evenodd;clip-rule:evenodd;stroke-linecap:round;stroke-linejoin:round;stroke-miterlimit:1.5;">
    <g transform="matrix(1,0,0,1,-76.6368,-48.0777)">
        <g id="shield1">
        </g>
        <g>
            <g transform="matrix(1,0,0,1,-20.8633,-186.063)">
                <g transform="matrix(48,0,0,48,93.3721,268.72)">
                    <path d="M0.295,-0.326L0.199,-0.216L0.199,-0L0.086,-0L0.086,-0.698L0.199,-0.698L0.199,-0.344L0.203,-0.344L0.303,-0.471L0.491,-0.698L0.623,-0.698L0.374,-0.404L0.643,-0L0.507,-0L0.295,-0.326Z" style="fill-rule:nonzero;"/>
                </g>
                <g transform="matrix(48,0,0,48,125.052,268.72)">
                    <path d="M0.086,-0L0.086,-0.698L0.533,-0.698L0.533,-0.598L0.199,-0.598L0.199,-0.404L0.502,-0.404L0.502,-0.304L0.199,-0.304L0.199,-0.1L0.533,-0.1L0.533,-0L0.086,-0Z" style="fill-rule:nonzero;"/>
                </g>
                <g transform="matrix(48,0,0,48,153.516,268.72)">
                    <path d="M0.295,0.012C0.236,0.012 0.187,0.001 0.146,-0.02C0.105,-0.041 0.069,-0.07 0.04,-0.106L0.118,-0.179C0.143,-0.149 0.17,-0.126 0.2,-0.111C0.229,-0.096 0.263,-0.088 0.301,-0.088C0.346,-0.088 0.379,-0.098 0.402,-0.118C0.425,-0.138 0.436,-0.165 0.436,-0.199C0.436,-0.226 0.428,-0.248 0.412,-0.264C0.396,-0.28 0.368,-0.292 0.327,-0.3L0.265,-0.311C0.197,-0.324 0.146,-0.346 0.112,-0.378C0.078,-0.41 0.061,-0.454 0.061,-0.51C0.061,-0.541 0.067,-0.569 0.079,-0.594C0.09,-0.619 0.107,-0.64 0.128,-0.657C0.149,-0.674 0.174,-0.687 0.204,-0.696C0.234,-0.705 0.268,-0.71 0.305,-0.71C0.358,-0.71 0.403,-0.701 0.442,-0.683C0.481,-0.664 0.514,-0.638 0.541,-0.603L0.462,-0.533C0.444,-0.556 0.422,-0.575 0.396,-0.589C0.37,-0.603 0.338,-0.61 0.299,-0.61C0.259,-0.61 0.228,-0.602 0.206,-0.586C0.184,-0.57 0.173,-0.547 0.173,-0.516C0.173,-0.487 0.182,-0.465 0.2,-0.451C0.218,-0.436 0.246,-0.425 0.284,-0.418L0.346,-0.405C0.416,-0.392 0.467,-0.369 0.5,-0.337C0.532,-0.305 0.548,-0.261 0.548,-0.205C0.548,-0.172 0.542,-0.143 0.531,-0.116C0.52,-0.089 0.503,-0.067 0.482,-0.048C0.46,-0.028 0.433,-0.014 0.402,-0.004C0.371,0.007 0.335,0.012 0.295,0.012Z" style="fill-rule:nonzero;"/>
                </g>
                <g transform="matrix(48,0,0,48,181.404,268.72)">
                    <path d="M0.345,-0.598L0.345,-0L0.232,-0L0.232,-0.598L0.024,-0.598L0.024,-0.698L0.553,-0.698L0.553,-0.598L0.345,-0.598Z" style="fill-rule:nonzero;"/>
                </g>
                <g transform="matrix(48,0,0,48,209.1,268.72)">
                    <path d="M0.199,-0L0.086,-0L0.086,-0.698L0.387,-0.698C0.45,-0.698 0.499,-0.679 0.535,-0.642C0.571,-0.604 0.589,-0.553 0.589,-0.488C0.589,-0.438 0.578,-0.397 0.555,-0.364C0.532,-0.331 0.498,-0.307 0.453,-0.294L0.604,-0L0.478,-0L0.338,-0.282L0.199,-0.282L0.199,-0ZM0.379,-0.377C0.408,-0.377 0.43,-0.385 0.446,-0.4C0.462,-0.415 0.47,-0.436 0.47,-0.464L0.47,-0.512C0.47,-0.54 0.462,-0.562 0.446,-0.577C0.43,-0.592 0.408,-0.599 0.379,-0.599L0.199,-0.599L0.199,-0.377L0.379,-0.377Z" style="fill-rule:nonzero;"/>
                </g>
                <g transform="matrix(48,0,0,48,240.54,268.72)">
                    <path d="M0.086,-0L0.086,-0.698L0.533,-0.698L0.533,-0.598L0.199,-0.598L0.199,-0.404L0.502,-0.404L0.502,-0.304L0.199,-0.304L0.199,-0.1L0.533,-0.1L0.533,-0L0.086,-0Z" style="fill-rule:nonzero;"/>
                </g>
                <g transform="matrix(48,0,0,48,269.004,268.72)">
                    <path d="M0.086,-0L0.086,-0.698L0.199,-0.698L0.199,-0.1L0.483,-0.1L0.483,-0L0.086,-0Z" style="fill-rule:nonzero;"/>
                </g>
            </g>
            <g id="shield11" serif:id="shield1" transform="matrix(0.621479,0,0,0.621479,11.3438,6.73811)">
                <g transform="matrix(0.721071,-0.00823813,0.00937258,0.820368,328.172,-9.5701)">
                    <path d="M197.548,97.279L252.478,96.755L250.855,157.009L197.009,182.077L197.548,97.279Z" style="fill:rgb(153,0,0);stroke:black;stroke-width:3.12px;"/>
                </g>
                <g transform="matrix(-0.721118,0,0,0.820422,613.116,-11.1983)">
                    <path d="M197.548,97.279L252.478,96.755L250.855,157.009L197.009,182.077L197.548,97.279Z" style="fill:rgb(206,212,218);stroke:black;stroke-width:3.12px;"/>
                </g>
            </g>
        </g>
    </g>
</svg>
